<svg width="46" height="38" viewBox="0 0 46 38" fill="none" xmlns="http://www.w3.org/2000/svg">
<path fill-rule="evenodd" clip-rule="evenodd" d="M21.4661 0.596839C21.2291 0.833824 21.2203 0.885215 21.2426 1.92116C21.2552 2.51386 21.225 3.03932 21.1755 3.08866C21.1259 3.13799 20.6008 3.249 20.0086 3.33514C17.4119 3.71318 15.2288 4.47484 12.9118 5.8113C11.2389 6.77627 10.332 7.45522 8.96201 8.76847C7.54568 10.1262 6.61075 11.3101 5.40645 13.2713C5.06061 13.8346 4.39556 15.1529 4.39556 15.2753C4.39556 15.3005 4.2871 15.5582 4.15456 15.8481C3.40896 17.4782 2.74567 20.4878 2.72169 22.3497C2.70515 23.6373 2.75654 23.582 1.46795 23.6997C0.491915 23.789 0.337253 23.8283 0.174956 24.0287C-0.0801388 24.3437 -0.0554713 24.6869 0.243672 24.9861C0.494558 25.2369 0.506402 25.2386 1.58962 25.1751C2.19075 25.1398 4.00401 25.0462 5.61915 24.9669C7.2343 24.8876 9.32664 24.779 10.2688 24.7256C12.9744 24.5723 13.6591 24.537 15.0163 24.4813C16.351 24.4264 18.8048 24.2963 21.5258 24.1362C22.4142 24.0838 23.7827 24.018 24.567 23.9897C25.3513 23.9614 26.3424 23.9186 26.7695 23.8947C27.1966 23.8708 28.6031 23.8047 29.8952 23.7477C31.1873 23.6908 32.9493 23.6025 33.8107 23.5515C34.6721 23.5005 35.8835 23.4336 36.5026 23.4026C37.1217 23.3717 37.8926 23.3275 38.2156 23.3044C38.5387 23.2812 39.3536 23.2368 40.0266 23.2055C44.4149 23.0017 45.5977 22.9022 45.7989 22.7202C46.0619 22.4821 46.0683 21.8818 45.8102 21.6482C45.6521 21.5051 45.4529 21.4825 44.5388 21.5035C43.9425 21.5173 43.4225 21.4964 43.3831 21.457C43.3438 21.4176 43.2376 20.8922 43.1471 20.2894C42.9636 19.0657 42.9276 18.8927 42.7262 18.2635C42.6486 18.0213 42.5337 17.6248 42.471 17.3826C42.4081 17.1403 42.317 16.8656 42.2685 16.7721C42.2198 16.6787 42.1801 16.5523 42.1801 16.4915C42.1801 16.262 41.2488 14.1865 40.7617 13.3303C40.1169 12.197 39.5494 11.3244 39.2569 11.0165C39.1309 10.8837 38.9115 10.621 38.7694 10.4326C38.1678 9.63458 36.9438 8.41158 35.9437 7.609C35.1665 6.98526 33.0211 5.57275 32.3913 5.27008C29.6127 3.9349 27.0152 3.25007 24.2341 3.11969C23.3564 3.07848 22.9368 3.01965 22.8415 2.9244C22.7592 2.84218 22.7019 2.56643 22.6969 2.2298C22.6781 0.962448 22.6502 0.760702 22.4651 0.556215C22.2086 0.272831 21.7723 0.290549 21.4661 0.596839ZM13.6928 7.6183C13.6916 7.68564 13.5044 8.03324 13.2768 8.39092C12.6521 9.37224 11.4437 11.6415 11.4436 11.8337C11.4435 11.8776 11.3333 12.1542 11.1987 12.4484C11.0641 12.7427 10.954 13.0394 10.954 13.1078C10.954 13.1761 10.9131 13.274 10.8631 13.3251C10.7311 13.46 10.1131 15.9036 9.93589 16.991C9.78377 17.9239 9.72827 18.4795 9.63283 20.0255C9.54806 21.3973 9.29717 21.5873 7.53589 21.6141C6.16967 21.635 5.92045 21.5301 5.67329 20.8306C5.48975 20.3113 5.61651 19.6267 6.25728 17.6762C6.78284 16.0766 6.8957 15.7947 7.45219 14.6907C8.33719 12.9349 9.10825 11.7599 10.2787 10.3836C11.8626 8.52111 13.7028 7.03058 13.6928 7.6183ZM27.2523 27.2416C25.6318 27.2807 21.3166 27.4781 19.1276 27.6132C17.3433 27.7233 16.5484 27.7676 13.8906 27.9056C12.3563 27.9852 10.5723 28.0933 9.9262 28.1458C9.28014 28.1982 7.49615 28.2898 5.96176 28.3492C4.42738 28.4087 3.11118 28.4771 3.03699 28.5013C2.89818 28.5465 2.90826 28.7063 3.11402 29.7164C3.26604 30.4631 3.6989 31.8914 3.90799 32.3363C4.01733 32.5689 4.17747 32.9445 4.26381 33.1711C4.70479 34.3275 5.64842 35.9636 6.49838 37.0455C6.75749 37.3754 6.97675 37.6452 6.98566 37.6452C6.99457 37.6452 7.21932 37.5406 7.48518 37.4128C8.8421 36.7601 9.48022 36.4757 9.90965 36.332C11.2996 35.8672 13.6228 35.5664 15.2076 35.6462C16.6816 35.7203 24.4092 35.718 25.4903 35.6431C26.6211 35.5647 27.2861 35.4309 27.9375 35.1509C28.1528 35.0583 28.8136 34.7846 29.4058 34.5428C29.998 34.301 30.5266 34.0682 30.5804 34.0255C30.6343 33.9827 31.1938 33.7242 31.8238 33.451C32.4537 33.1778 33.0484 32.9107 33.1453 32.8576C33.3558 32.7419 34.1206 32.395 35.9642 31.5789C36.718 31.2452 37.5549 30.8683 37.8241 30.7413C38.0933 30.6143 38.5778 30.3931 38.9008 30.2497C39.5464 29.963 40.3375 29.597 41.5624 29.0183C42.0034 28.81 42.3916 28.6396 42.4252 28.6396C42.5646 28.6396 43.5374 28.1526 43.5998 28.0517C43.6371 27.9914 43.5861 27.8506 43.4867 27.7389C43.0455 27.2435 42.1856 27.1434 41.0477 27.455C40.0669 27.7236 38.7366 28.1348 38.5093 28.2397C38.4016 28.2894 37.9611 28.4431 37.5304 28.5813C36.3337 28.9652 33.7049 29.8845 33.3465 30.0446C33.1711 30.1229 32.8074 30.2613 32.5382 30.3522C32.269 30.4431 31.6082 30.6708 31.0699 30.8582C29.9959 31.2322 26.6929 31.9389 25.5799 32.0331C24.7195 32.1058 24.4144 32.0369 24.2092 31.7237C23.8544 31.1822 24.1202 30.4339 24.7541 30.1894C25.0942 30.0581 26.4941 29.8183 26.9324 29.816C27.2964 29.8143 29.5315 29.4574 30.92 29.1792C31.9009 28.9828 32.6325 28.6052 32.8271 28.1952C33.0174 27.7942 33.0164 27.7115 32.8183 27.4092L32.6581 27.1645L30.3956 27.1923C29.1514 27.2077 27.7368 27.2298 27.2523 27.2416Z" fill="#EF4444"/>
</svg>
